<mxfile host="app.diagrams.net" modified="2023-12-06T16:52:46.711Z" agent="Mozilla/5.0 (Macintosh; Intel Mac OS X 10_15_7) AppleWebKit/537.36 (KHTML, like Gecko) Chrome/119.0.0.0 Safari/537.36" version="22.1.7" etag="ipD9-XrPqNJGiv9_CsXp" type="github">
  <diagram name="第 1 页" id="L38JtRBKEJBVgLUoZZcK">
    <mxGraphModel>
      <root>
        <mxCell id="0" />
        <mxCell id="1" parent="0" />
      </root>
    </mxGraphModel>
  </diagram>
</mxfile>
